<?xml version="1.0" encoding="utf-8"?>
<!-- Generator: Adobe Illustrator 15.0.0, SVG Export Plug-In . SVG Version: 6.00 Build 0)  -->
<!DOCTYPE svg PUBLIC "-//W3C//DTD SVG 1.1//EN" "http://www.w3.org/Graphics/SVG/1.1/DTD/svg11.dtd">
<svg version="1.1" id="Layer_1" xmlns="http://www.w3.org/2000/svg" xmlns:xlink="http://www.w3.org/1999/xlink" x="0px" y="0px"
	 width="534px" height="187.089px" viewBox="0 0 534 187.089" enable-background="new 0 0 534 187.089" xml:space="preserve">
<g>
	<path d="M24.557,62.922C33.442,49.225,50.425,28.251,75.507,0c-3.636,5.873-6.992,12.445-10.068,19.716
		c-3.082,7.277-6.018,15.94-8.809,26.008c-1.404,5.034-2.098,10.067-2.098,15.101c0,5.034,0.693,10.068,2.098,15.102
		c2.791,10.067,8.664,18.183,17.618,24.33c8.39,6.152,19.716,9.229,33.978,9.229c11.466,0,24.604-1.952,39.431-5.873l122.069-32.3
		l33.978-9.229L534,1.678L143.043,166.534c-32.72,13.703-59.985,20.555-81.799,20.555c-24.738,0-42.647-8.949-53.752-26.847
		C2.499,151.293,0,141.511,0,130.878c0-5.034,0.548-10.208,1.666-15.521C4.993,98.578,12.625,81.105,24.557,62.922z
		 M394.574,128.781c0.56-2.517,2.372-3.775,5.454-3.775h26.847c2.697,0,4.311-1.41,4.854-4.241l4.795-27.243
		c0.553-2.796,2.207-4.195,4.975-4.195h6.631c2.768,0,3.874,1.387,3.32,4.16l-4.807,27.255c-0.535,2.843,0.583,4.265,3.356,4.265
		h27.686c2.517,0,3.63,1.259,3.355,3.775l-1.258,6.712c-0.565,2.796-2.378,4.195-5.454,4.195h-26.846
		c-2.692,0-4.307,1.258-4.836,3.77l-4.883,27.657c-0.553,2.819-2.214,4.229-4.976,4.229h-6.222c-1.107,0-2.074-0.419-2.902-1.258
		c-0.832-0.839-1.106-1.818-0.826-2.937l4.876-27.668c0.53-2.528-0.589-3.792-3.356-3.792h-27.686c-2.797,0-3.921-1.398-3.355-4.195
		L394.574,128.781z"/>
</g>
</svg>
